<?xml version="1.0" encoding="UTF-8"?>
<svg viewBox="0 0 16 16" version="1.1" xmlns="http://www.w3.org/2000/svg"
     width="12" height="12">
    <g stroke="none" stroke-width="1" fill="none" fill-rule="evenodd">
        <path
            d="M12.0026367,0.811608013 C13.000188,1.39880861 13.1683654,3.05395811 12.6543174,5.13322847 C14.6774086,5.7193082 16,6.69526362 16,7.86703086 C16,8.89860081 14.9749611,9.77841208 13.3492263,10.3744729 L13.2267347,10.2527454 L13.2547077,10.1539075 C13.2962912,9.97893889 13.3227084,9.79970982 13.3334052,9.61792891 C14.5451062,9.13989813 15.2860426,8.51370425 15.2860426,7.86703086 C15.2860426,7.07792913 14.182785,6.3193215 12.4627308,5.82372714 L12.4334285,5.92017718 C12.3304871,6.24930007 12.2123259,6.58632443 12.0794555,6.92901648 C11.8848121,6.78440769 11.6742586,6.66153529 11.4500926,6.56371732 C11.5692231,6.25010693 11.6746081,5.94309432 11.7665586,5.64484082 C11.3258972,5.54559146 10.8545469,5.46204924 10.358831,5.39779172 L10.3770845,5.42845939 C10.5338846,5.67984293 10.6877124,5.93844771 10.8378964,6.20362987 L10.9430898,6.39198947 C10.6979498,6.33154835 10.4415323,6.2994725 10.1776044,6.2994725 L10.069,6.303 L9.96537322,6.12434552 C9.7957783,5.84153189 9.62223597,5.56806491 9.44597636,5.30481226 C8.97876844,5.26806301 8.49533245,5.24904522 8,5.24904522 C7.50466755,5.24904522 7.02123156,5.26806301 6.55422568,5.30393159 C6.28963423,5.69969124 6.03135869,6.11755246 5.78334872,6.55546749 C5.53422619,6.99534699 5.30743783,7.43432221 5.10341513,7.86719581 C5.30778621,8.30041382 5.53441753,8.73905258 5.78334872,9.17859423 C6.03135869,9.61650926 6.28963423,10.0343705 6.55402364,10.4292495 C6.76371793,10.4457434 6.97668125,10.4586655 7.19252198,10.4678994 C7.28451357,10.7263148 7.40937976,10.9701556 7.56257665,11.1933589 L8,11.1989739 C7.68986982,11.1989739 7.38374528,11.192032 7.08260024,11.1784512 L7.09196696,11.1905031 L7.43236151,11.6315034 C7.62119878,11.8678949 7.81080375,12.0917467 7.99979898,12.3020873 C8.10069788,12.1900307 8.20165589,12.0741396 8.30252544,11.9545608 C8.49724455,12.0981131 8.70995267,12.219459 8.93621768,12.3153974 C8.790236,12.4929377 8.64310844,12.6628301 8.49566587,12.8254218 C9.77788678,14.0999654 10.9747012,14.6989495 11.6404645,14.3071473 C11.9090737,14.1490351 12.0846566,13.8358771 12.170162,13.4031869 L12.7419182,13.9684141 C12.5889483,14.3945634 12.3444882,14.7212255 12.0026216,14.9224626 C11.0017727,15.511464 9.51039658,14.8344367 8.00033595,13.3436919 C6.49026291,14.8341348 4.99844347,15.5115912 3.99736334,14.9224537 C2.99981202,14.3352531 2.83163464,12.6801036 3.34568262,10.6008332 C1.32259141,10.0147535 0,9.03879809 0,7.86703086 C0,6.69526362 1.32259141,5.7193082 3.34583905,5.13261723 C2.83163697,3.05395674 2.99981796,1.39880512 3.99737843,0.811599129 C4.99844941,0.222467023 6.49026525,0.899925527 8.00066919,2.39136219 C9.51039892,0.89962641 11.0017786,0.222601209 12.0026367,0.811608013 Z M4.0400018,10.7810978 L4.02095545,10.8591681 C3.60112263,12.5935193 3.69938827,13.9185629 4.35952036,14.3071384 C5.02529248,14.6989458 6.22211061,14.0999639 7.50463107,12.8243169 C7.04689822,12.3209866 6.59249468,11.7462798 6.15427987,11.1139141 C5.4034678,11.0439341 4.69311328,10.931109 4.0400018,10.7810978 Z M10.1776044,6.84540259 C11.6224344,6.84540259 12.7929125,8.00432344 12.7929125,9.43267985 C12.7929125,9.77575599 12.7256259,10.1039494 12.6026207,10.4033437 L12.6026207,10.4033437 L14.6181334,12.3980174 C14.7916599,12.5698001 14.8893949,12.8040575 14.88954,13.0485409 C14.8896847,13.2930243 14.7922274,13.5273979 14.6189046,13.6993873 L14.6189046,13.6993873 L14.5897921,13.7281863 C14.2279098,14.0863385 13.6369832,14.0863385 13.2751009,13.7281863 L13.2751009,13.7281863 L11.2977622,11.7721692 C10.9580517,11.9314338 10.579396,12.0207302 10.1785684,12.0207302 C8.73373846,12.0207302 7.56325593,10.8618094 7.56325593,9.43345298 C7.56245139,8.99989743 7.67208166,8.57331492 7.88176306,8.19412669 L7.88176306,8.19412669 L9.37344301,9.66983727 C9.47392408,9.76867901 9.63484422,9.76867901 9.7353253,9.66983727 L9.7353253,9.66983727 L10.4174455,8.99508866 C10.4653973,8.9479432 10.4924154,8.88344148 10.4924154,8.81610922 C10.4924154,8.74877697 10.4653973,8.68427525 10.4174455,8.63712979 L10.4174455,8.63712979 L8.92480151,7.16045279 C9.2972877,6.96001901 9.7237574,6.84540259 10.1776044,6.84540259 Z M4.72671676,8.72179039 L4.64524337,8.92303597 C4.48684127,9.32270504 4.34944936,9.71293399 4.23344141,10.0892209 C4.67410277,10.1884703 5.1454531,10.2720125 5.64116897,10.33627 C5.47847695,10.0749796 5.31831904,9.80626389 5.16210358,9.53043185 C5.00921123,9.26046746 4.86400873,8.99059848 4.72671676,8.72179039 Z M3.53683383,5.82393145 L3.3462676,5.88061677 C1.73597001,6.37629727 0.713957447,7.10753983 0.713957447,7.86703086 C0.713957447,8.65613259 1.81721503,9.41474022 3.5372692,9.91033458 C3.73652245,9.2557867 3.99714643,8.56904097 4.31463533,7.86770002 C3.99731581,7.16546674 3.73658754,6.47848738 3.53683383,5.82393145 Z M5.64182143,5.3982072 L5.48086267,5.41935955 C5.0436466,5.48034824 4.62634816,5.55640653 4.23346961,5.64538242 C4.36882424,6.0839713 4.53332966,6.54208993 4.72636417,7.01204116 C4.86400873,6.74346324 5.00921123,6.47359426 5.16210358,6.20362987 C5.31831904,5.92779783 5.47847695,5.65908207 5.64182143,5.3982072 Z M4.35953546,1.42691446 C3.6894932,1.8213234 3.59830387,3.18050037 4.04019735,4.95320834 C4.69311328,4.80295268 5.4034678,4.69012761 6.15411463,4.61976122 C6.57018219,4.01998011 7.00066668,3.47174943 7.43448569,2.98623783 L7.50463215,2.90974421 C6.22211322,1.63409631 5.02529876,1.03511224 4.35953546,1.42691446 Z M8.49536893,2.90974485 C8.95310178,3.41307512 9.40750532,3.98778188 9.84572013,4.62014763 C10.5965322,4.69012761 11.3068867,4.80295268 11.9599982,4.9529639 C12.4016987,3.18050191 12.3105131,1.8213271 11.6404796,1.42692334 C10.9747075,1.03511594 9.77788939,1.63409785 8.49536893,2.90974485 Z M8.00020102,3.43197437 L7.94552699,3.4927299 L7.68885549,3.78968382 L7.43236176,4.10255844 L7.09196709,4.54355874 L7.08322106,4.55528993 C7.38374528,4.54202967 7.68986982,4.53508778 8,4.53508778 C8.31013018,4.53508778 8.61625472,4.54202967 8.91739976,4.55561054 L8.90803304,4.54355867 L8.56763849,4.10255829 C8.37880122,3.86616682 8.18919625,3.64231499 8.00020102,3.43197437 Z"
            fill="#AFB1B3"/>
    </g>
</svg>
